#!OML:ASF F:\VICON\USERDATA\INSTALL\rory3\rory3.ASF
:FULLY-SPECIFIED
:DEGREES
93
root 1.3459740340013329 17.859468211008167 49.15007326456291 -3.458386127776508 -2.8321174919556644 -5.052297786246799
lfemur -5.193332070376467 0.08056450525020908 -13.360797608431486
ltibia 56.57022058327492
lfoot -5.6330695441368075 -0.06600370377414011
ltoes -5.239881148335477
rfemur -10.955100009318047 3.600528536695169 29.788319929839968
rtibia 26.966837984848105
rfoot -19.91283571410321 -10.904753905031367
rtoes -0.6238663338104802
lowerback -1.0 -0.7711900208745222 3.209631451834615
upperback -0.009047519837035611 -0.23243342884419538 2.1584560929057828
thorax -5.352340811180807 -0.16895091551851016 1.4841451484467676
lowerneck -16.678584412978203 -2.9654918072968663 -1.4589786823441089
upperneck 21.20900332805219 -3.724430768965199 0.2580155709655647
head 9.479411981364242 -1.8372612004518056 -0.13078768894392523
lclavicle 2.96232937273328e-16 -8.801699094457118e-16
lhumerus -27.94069027226969 0.9363873503605165 80.39089357192442
lradius 23.222234195236684
lwrist 7.437662517915765
lhand -28.157542655486942 19.9449548146367
lfingers nan
lthumb -1.6256783695757275 49.73710482778928
rclavicle 4.1635344967566834e-16 -7.841194535327307e-16
rhumerus -32.012498941496325 -23.819798098907267 -76.23375851918473
rradius 32.61283971318799
rwrist 1.3977405150064177
rhand -17.523268575855493 -1.0
rfingers nan
rthumb 8.74301576551508 -7.667264047024256
94
root 1.2964912202642718 17.849793643346683 48.9347059189057 -3.5976700059248192 -2.5184362838802934 -6.156637934583629
lfemur -9.80274852906163 0.6369689112714993 -11.813957145779465
ltibia 59.05249439092875
lfoot -5.6889715480560605 0.4293530932855787
ltoes -5.921165652329889
rfemur -8.839708796978746 3.8615396486940403 30.60941268428593
rtibia 28.012879640681575
rfoot -19.90479716406201 -10.923925008361191
rtoes -1.0133944970751352
lowerback -1.0 -0.4313099300467445 4.137142368455089
upperback 0.01731409658614004 0.36796519433263974 2.163650754527138
thorax -5.44353002336101 0.14316877214262405 0.9227143514638243
lowerneck -16.678649234418643 -3.044326515260802 -1.329594448253505
upperneck 21.05036153780752 -3.8572470409162785 0.25973189726177986
head 9.437193444490072 -1.8905249897083414 -0.18553465433066324
lclavicle 3.060982390083045e-16 -8.75443749719207e-16
lhumerus -28.49433830190128 1.3725353809994556 80.58625558436228
lradius 22.371175906508924
lwrist 7.822195295731935
lhand -28.24817480801029 19.795732176748995
lfingers nan
lthumb -1.679456275246377 49.70709997510134
rclavicle 4.278801167359444e-16 -7.814697889182322e-16
rhumerus -31.271391688394413 -23.48186763056354 -76.06148658655596
rradius 32.53665343013419
rwrist 1.4497218717855294
rhand -17.51628964707521 -1.0
rfingers nan
rthumb 8.773461640080898 -7.522725549766282
95
root 1.2431712320919162 17.841706646962404 48.449215776496 -3.7504349203026752 -2.1807833119759823 -6.899668183425415
lfemur -14.208041635897388 0.9117852542769358 -11.117826075925645
ltibia 59.84139283477708
lfoot -5.852020503369633 0.5305147237809016
ltoes -6.801561074416075
rfemur -6.7906371086377115 4.012784299630843 31.14664372688617
rtibia 29.079739077649805
rfoot -19.257672988423025 -11.000198380592533
rtoes -1.4320340483373166
lowerback -1.0 -0.1381822129084253 4.742319946173842
upperback 0.031875415775137264 0.8432535427083441 2.1156010335777027
thorax -5.476955737787319 0.3852590887481156 0.3969459822133727
lowerneck -16.626283101805967 -3.120196477446317 -1.246642647399981
upperneck 20.966430150838242 -3.9838877560120136 0.2680032720409595
head 9.419681141308114 -1.940936190766166 -0.23186096955982377
lclavicle 3.168262366198758e-16 -8.702549267424273e-16
lhumerus -29.02586642808652 2.004455903088328 80.80631895510716
lradius 21.710287683648644
lwrist 8.159109698220533
lhand -28.332347963232195 19.760395110403316
lfingers nan
lthumb -1.8564395728404666 49.50762429243446
rclavicle 4.3990698393145717e-16 -7.79002968512581e-16
rhumerus -30.398020855125502 -22.873869637527406 -75.86125668586944
rradius 32.50630078964633
rwrist 1.637023380751784
rhand -17.532988645483304 -1.0
rfingers nan
rthumb 8.804706267400848 -7.369171415834579
96
root 1.194544132974384 17.83457194816956 47.67394111286691 -3.8466545827152325 -1.8904257903426684 -7.308907942855181
lfemur -17.912623099097324 0.9116957780034232 -11.114925414922773
ltibia 58.79743480874838
lfoot -6.044738117403107 0.9001938706508787
ltoes -7.487043261085834
rfemur -4.7070522027797645 4.137044941088288 31.490147796620754
rtibia 29.899732865089746
rfoot -18.006868404257467 -11.069293478073895
rtoes -1.7674942247640915
lowerback -1.0 0.11930494683374035 5.106537333497908
upperback 0.034527074856953485 1.2270973493895105 2.0296977725398544
thorax -5.442721222723453 0.5816972738029671 -0.06801582814498675
lowerneck -16.52199525895065 -3.1855534335936553 -1.2241475156722852
upperneck 20.977754255973206 -4.094028053061295 0.28412406361607695
head 9.430220106799 -1.9849696494940137 -0.2659271968703736
lclavicle 3.273601834040558e-16 -8.650326936991161e-16
lhumerus -29.593763462827347 2.696370653181959 81.0277466236427
lradius 21.292649395704505
lwrist 8.437354523026558
lhand -28.507940177795746 19.567615230776536
lfingers nan
lthumb -1.9797265847687728 49.47387892949603
rclavicle 4.506118809777125e-16 -7.771376573344082e-16
rhumerus -29.538488733341826 -22.11346188230264 -75.66328995349322
rradius 32.551849762091614
rwrist 1.8821660752908627
rhand -17.521846729320526 -1.0
rfingers nan
rthumb 8.804630592102853 -7.2847015622802065
